<mxfile host="Electron" modified="2024-08-24T18:38:22.407Z" agent="Mozilla/5.0 (Windows NT 10.0; Win64; x64) AppleWebKit/537.36 (KHTML, like Gecko) draw.io/22.0.3 Chrome/114.0.5735.289 Electron/25.8.4 Safari/537.36" etag="oxp9MqFD0j_KAhvXB9-f" version="22.0.3" type="device">
  <diagram id="UserClassDiagram" name="Page-1">
    <mxGraphModel dx="2470" dy="1494" grid="1" gridSize="10" guides="1" tooltips="1" connect="1" arrows="1" fold="1" page="1" pageScale="1" pageWidth="827" pageHeight="1169" math="0" shadow="0">
      <root>
        <mxCell id="0" />
        <mxCell id="1" parent="0" />
        <mxCell id="mnCGz3y9tnZlSnGq0WkS-1" value="User&lt;br&gt;" style="swimlane;fontStyle=0;childLayout=stackLayout;horizontal=1;startSize=30;horizontalStack=0;resizeParent=1;resizeParentMax=0;resizeLast=0;collapsible=1;marginBottom=0;whiteSpace=wrap;html=1;" vertex="1" parent="1">
          <mxGeometry x="-140" y="725" width="140" height="150" as="geometry" />
        </mxCell>
        <mxCell id="mnCGz3y9tnZlSnGq0WkS-2" value="Item 1" style="text;strokeColor=none;fillColor=none;align=left;verticalAlign=middle;spacingLeft=4;spacingRight=4;overflow=hidden;points=[[0,0.5],[1,0.5]];portConstraint=eastwest;rotatable=0;whiteSpace=wrap;html=1;" vertex="1" parent="mnCGz3y9tnZlSnGq0WkS-1">
          <mxGeometry y="30" width="140" height="30" as="geometry" />
        </mxCell>
        <mxCell id="mnCGz3y9tnZlSnGq0WkS-3" value="Item 2" style="text;strokeColor=none;fillColor=none;align=left;verticalAlign=middle;spacingLeft=4;spacingRight=4;overflow=hidden;points=[[0,0.5],[1,0.5]];portConstraint=eastwest;rotatable=0;whiteSpace=wrap;html=1;" vertex="1" parent="mnCGz3y9tnZlSnGq0WkS-1">
          <mxGeometry y="60" width="140" height="30" as="geometry" />
        </mxCell>
        <mxCell id="mnCGz3y9tnZlSnGq0WkS-6" value="Item 2" style="text;strokeColor=none;fillColor=none;align=left;verticalAlign=middle;spacingLeft=4;spacingRight=4;overflow=hidden;points=[[0,0.5],[1,0.5]];portConstraint=eastwest;rotatable=0;whiteSpace=wrap;html=1;" vertex="1" parent="mnCGz3y9tnZlSnGq0WkS-1">
          <mxGeometry y="90" width="140" height="30" as="geometry" />
        </mxCell>
        <mxCell id="mnCGz3y9tnZlSnGq0WkS-4" value="Item 3" style="text;strokeColor=none;fillColor=none;align=left;verticalAlign=middle;spacingLeft=4;spacingRight=4;overflow=hidden;points=[[0,0.5],[1,0.5]];portConstraint=eastwest;rotatable=0;whiteSpace=wrap;html=1;" vertex="1" parent="mnCGz3y9tnZlSnGq0WkS-1">
          <mxGeometry y="120" width="140" height="30" as="geometry" />
        </mxCell>
        <mxCell id="mnCGz3y9tnZlSnGq0WkS-77" style="edgeStyle=orthogonalEdgeStyle;rounded=0;orthogonalLoop=1;jettySize=auto;html=1;" edge="1" parent="1" source="mnCGz3y9tnZlSnGq0WkS-7" target="mnCGz3y9tnZlSnGq0WkS-60">
          <mxGeometry relative="1" as="geometry" />
        </mxCell>
        <mxCell id="mnCGz3y9tnZlSnGq0WkS-78" style="edgeStyle=orthogonalEdgeStyle;rounded=0;orthogonalLoop=1;jettySize=auto;html=1;entryX=0.75;entryY=0;entryDx=0;entryDy=0;" edge="1" parent="1" source="mnCGz3y9tnZlSnGq0WkS-7" target="mnCGz3y9tnZlSnGq0WkS-71">
          <mxGeometry relative="1" as="geometry" />
        </mxCell>
        <mxCell id="mnCGz3y9tnZlSnGq0WkS-96" value="" style="edgeStyle=orthogonalEdgeStyle;rounded=0;orthogonalLoop=1;jettySize=auto;html=1;" edge="1" parent="1" source="mnCGz3y9tnZlSnGq0WkS-7" target="mnCGz3y9tnZlSnGq0WkS-91">
          <mxGeometry relative="1" as="geometry" />
        </mxCell>
        <mxCell id="mnCGz3y9tnZlSnGq0WkS-102" value="" style="edgeStyle=orthogonalEdgeStyle;rounded=0;orthogonalLoop=1;jettySize=auto;html=1;" edge="1" parent="1" source="mnCGz3y9tnZlSnGq0WkS-7" target="mnCGz3y9tnZlSnGq0WkS-97">
          <mxGeometry relative="1" as="geometry" />
        </mxCell>
        <mxCell id="mnCGz3y9tnZlSnGq0WkS-7" value="UserDto" style="swimlane;fontStyle=0;childLayout=stackLayout;horizontal=1;startSize=30;horizontalStack=0;resizeParent=1;resizeParentMax=0;resizeLast=0;collapsible=1;marginBottom=0;whiteSpace=wrap;html=1;" vertex="1" parent="1">
          <mxGeometry x="30" y="1070" width="140" height="150" as="geometry" />
        </mxCell>
        <mxCell id="mnCGz3y9tnZlSnGq0WkS-8" value="Item 1" style="text;strokeColor=none;fillColor=none;align=left;verticalAlign=middle;spacingLeft=4;spacingRight=4;overflow=hidden;points=[[0,0.5],[1,0.5]];portConstraint=eastwest;rotatable=0;whiteSpace=wrap;html=1;" vertex="1" parent="mnCGz3y9tnZlSnGq0WkS-7">
          <mxGeometry y="30" width="140" height="30" as="geometry" />
        </mxCell>
        <mxCell id="mnCGz3y9tnZlSnGq0WkS-9" value="Item 2" style="text;strokeColor=none;fillColor=none;align=left;verticalAlign=middle;spacingLeft=4;spacingRight=4;overflow=hidden;points=[[0,0.5],[1,0.5]];portConstraint=eastwest;rotatable=0;whiteSpace=wrap;html=1;" vertex="1" parent="mnCGz3y9tnZlSnGq0WkS-7">
          <mxGeometry y="60" width="140" height="30" as="geometry" />
        </mxCell>
        <mxCell id="mnCGz3y9tnZlSnGq0WkS-10" value="Item 2" style="text;strokeColor=none;fillColor=none;align=left;verticalAlign=middle;spacingLeft=4;spacingRight=4;overflow=hidden;points=[[0,0.5],[1,0.5]];portConstraint=eastwest;rotatable=0;whiteSpace=wrap;html=1;" vertex="1" parent="mnCGz3y9tnZlSnGq0WkS-7">
          <mxGeometry y="90" width="140" height="30" as="geometry" />
        </mxCell>
        <mxCell id="mnCGz3y9tnZlSnGq0WkS-11" value="Item 3" style="text;strokeColor=none;fillColor=none;align=left;verticalAlign=middle;spacingLeft=4;spacingRight=4;overflow=hidden;points=[[0,0.5],[1,0.5]];portConstraint=eastwest;rotatable=0;whiteSpace=wrap;html=1;" vertex="1" parent="mnCGz3y9tnZlSnGq0WkS-7">
          <mxGeometry y="120" width="140" height="30" as="geometry" />
        </mxCell>
        <mxCell id="mnCGz3y9tnZlSnGq0WkS-13" value="シリアライズ&lt;br&gt;デシリアライズ" style="endArrow=classic;startArrow=classic;html=1;rounded=0;entryX=-0.029;entryY=0.133;entryDx=0;entryDy=0;entryPerimeter=0;exitX=0.993;exitY=0.133;exitDx=0;exitDy=0;exitPerimeter=0;" edge="1" parent="1" source="mnCGz3y9tnZlSnGq0WkS-1" target="mnCGz3y9tnZlSnGq0WkS-7">
          <mxGeometry width="50" height="50" relative="1" as="geometry">
            <mxPoint x="50" y="780" as="sourcePoint" />
            <mxPoint x="100" y="730" as="targetPoint" />
          </mxGeometry>
        </mxCell>
        <mxCell id="mnCGz3y9tnZlSnGq0WkS-28" value="" style="edgeStyle=orthogonalEdgeStyle;rounded=0;orthogonalLoop=1;jettySize=auto;html=1;" edge="1" parent="1" source="mnCGz3y9tnZlSnGq0WkS-20" target="mnCGz3y9tnZlSnGq0WkS-24">
          <mxGeometry relative="1" as="geometry" />
        </mxCell>
        <mxCell id="mnCGz3y9tnZlSnGq0WkS-37" value="" style="edgeStyle=orthogonalEdgeStyle;rounded=0;orthogonalLoop=1;jettySize=auto;html=1;" edge="1" parent="1" source="mnCGz3y9tnZlSnGq0WkS-20" target="mnCGz3y9tnZlSnGq0WkS-33">
          <mxGeometry relative="1" as="geometry" />
        </mxCell>
        <mxCell id="mnCGz3y9tnZlSnGq0WkS-38" style="edgeStyle=orthogonalEdgeStyle;rounded=0;orthogonalLoop=1;jettySize=auto;html=1;entryX=0.5;entryY=0;entryDx=0;entryDy=0;" edge="1" parent="1" source="mnCGz3y9tnZlSnGq0WkS-20" target="mnCGz3y9tnZlSnGq0WkS-29">
          <mxGeometry relative="1" as="geometry" />
        </mxCell>
        <mxCell id="mnCGz3y9tnZlSnGq0WkS-20" value="UserModel" style="swimlane;fontStyle=0;childLayout=stackLayout;horizontal=1;startSize=30;horizontalStack=0;resizeParent=1;resizeParentMax=0;resizeLast=0;collapsible=1;marginBottom=0;whiteSpace=wrap;html=1;" vertex="1" parent="1">
          <mxGeometry x="400" y="880" width="140" height="120" as="geometry" />
        </mxCell>
        <mxCell id="mnCGz3y9tnZlSnGq0WkS-21" value="Insert" style="text;strokeColor=none;fillColor=none;align=left;verticalAlign=middle;spacingLeft=4;spacingRight=4;overflow=hidden;points=[[0,0.5],[1,0.5]];portConstraint=eastwest;rotatable=0;whiteSpace=wrap;html=1;" vertex="1" parent="mnCGz3y9tnZlSnGq0WkS-20">
          <mxGeometry y="30" width="140" height="30" as="geometry" />
        </mxCell>
        <mxCell id="mnCGz3y9tnZlSnGq0WkS-22" value="Update" style="text;strokeColor=none;fillColor=none;align=left;verticalAlign=middle;spacingLeft=4;spacingRight=4;overflow=hidden;points=[[0,0.5],[1,0.5]];portConstraint=eastwest;rotatable=0;whiteSpace=wrap;html=1;" vertex="1" parent="mnCGz3y9tnZlSnGq0WkS-20">
          <mxGeometry y="60" width="140" height="30" as="geometry" />
        </mxCell>
        <mxCell id="mnCGz3y9tnZlSnGq0WkS-23" value="Delete" style="text;strokeColor=none;fillColor=none;align=left;verticalAlign=middle;spacingLeft=4;spacingRight=4;overflow=hidden;points=[[0,0.5],[1,0.5]];portConstraint=eastwest;rotatable=0;whiteSpace=wrap;html=1;" vertex="1" parent="mnCGz3y9tnZlSnGq0WkS-20">
          <mxGeometry y="90" width="140" height="30" as="geometry" />
        </mxCell>
        <mxCell id="mnCGz3y9tnZlSnGq0WkS-24" value="&lt;div style=&quot;border-color: var(--border-color);&quot;&gt;UserModifier&lt;/div&gt;&lt;div style=&quot;border-color: var(--border-color);&quot;&gt;&lt;br&gt;&lt;/div&gt;" style="swimlane;fontStyle=0;childLayout=stackLayout;horizontal=1;startSize=30;horizontalStack=0;resizeParent=1;resizeParentMax=0;resizeLast=0;collapsible=1;marginBottom=0;whiteSpace=wrap;html=1;" vertex="1" parent="1">
          <mxGeometry x="470" y="1110" width="140" height="60" as="geometry" />
        </mxCell>
        <mxCell id="mnCGz3y9tnZlSnGq0WkS-26" value="Update" style="text;strokeColor=none;fillColor=none;align=left;verticalAlign=middle;spacingLeft=4;spacingRight=4;overflow=hidden;points=[[0,0.5],[1,0.5]];portConstraint=eastwest;rotatable=0;whiteSpace=wrap;html=1;" vertex="1" parent="mnCGz3y9tnZlSnGq0WkS-24">
          <mxGeometry y="30" width="140" height="30" as="geometry" />
        </mxCell>
        <mxCell id="mnCGz3y9tnZlSnGq0WkS-29" value="&lt;div&gt;UserRegistrar&lt;/div&gt;&lt;div&gt;&lt;br&gt;&lt;/div&gt;" style="swimlane;fontStyle=0;childLayout=stackLayout;horizontal=1;startSize=30;horizontalStack=0;resizeParent=1;resizeParentMax=0;resizeLast=0;collapsible=1;marginBottom=0;whiteSpace=wrap;html=1;" vertex="1" parent="1">
          <mxGeometry x="310" y="1110" width="140" height="60" as="geometry" />
        </mxCell>
        <mxCell id="mnCGz3y9tnZlSnGq0WkS-30" value="Insert" style="text;strokeColor=none;fillColor=none;align=left;verticalAlign=middle;spacingLeft=4;spacingRight=4;overflow=hidden;points=[[0,0.5],[1,0.5]];portConstraint=eastwest;rotatable=0;whiteSpace=wrap;html=1;" vertex="1" parent="mnCGz3y9tnZlSnGq0WkS-29">
          <mxGeometry y="30" width="140" height="30" as="geometry" />
        </mxCell>
        <mxCell id="mnCGz3y9tnZlSnGq0WkS-55" style="edgeStyle=orthogonalEdgeStyle;rounded=0;orthogonalLoop=1;jettySize=auto;html=1;" edge="1" parent="1" source="mnCGz3y9tnZlSnGq0WkS-33" target="mnCGz3y9tnZlSnGq0WkS-51">
          <mxGeometry relative="1" as="geometry" />
        </mxCell>
        <mxCell id="mnCGz3y9tnZlSnGq0WkS-33" value="UserDestroyer" style="swimlane;fontStyle=0;childLayout=stackLayout;horizontal=1;startSize=30;horizontalStack=0;resizeParent=1;resizeParentMax=0;resizeLast=0;collapsible=1;marginBottom=0;whiteSpace=wrap;html=1;" vertex="1" parent="1">
          <mxGeometry x="630" y="1110" width="140" height="60" as="geometry" />
        </mxCell>
        <mxCell id="mnCGz3y9tnZlSnGq0WkS-36" value="Delete" style="text;strokeColor=none;fillColor=none;align=left;verticalAlign=middle;spacingLeft=4;spacingRight=4;overflow=hidden;points=[[0,0.5],[1,0.5]];portConstraint=eastwest;rotatable=0;whiteSpace=wrap;html=1;" vertex="1" parent="mnCGz3y9tnZlSnGq0WkS-33">
          <mxGeometry y="30" width="140" height="30" as="geometry" />
        </mxCell>
        <mxCell id="mnCGz3y9tnZlSnGq0WkS-43" style="edgeStyle=orthogonalEdgeStyle;rounded=0;orthogonalLoop=1;jettySize=auto;html=1;entryX=0.75;entryY=0;entryDx=0;entryDy=0;" edge="1" parent="1" source="mnCGz3y9tnZlSnGq0WkS-39" target="mnCGz3y9tnZlSnGq0WkS-29">
          <mxGeometry relative="1" as="geometry" />
        </mxCell>
        <mxCell id="mnCGz3y9tnZlSnGq0WkS-44" style="edgeStyle=orthogonalEdgeStyle;rounded=0;orthogonalLoop=1;jettySize=auto;html=1;entryX=0.75;entryY=0;entryDx=0;entryDy=0;" edge="1" parent="1" source="mnCGz3y9tnZlSnGq0WkS-39" target="mnCGz3y9tnZlSnGq0WkS-24">
          <mxGeometry relative="1" as="geometry" />
        </mxCell>
        <mxCell id="mnCGz3y9tnZlSnGq0WkS-45" style="edgeStyle=orthogonalEdgeStyle;rounded=0;orthogonalLoop=1;jettySize=auto;html=1;entryX=0.75;entryY=0;entryDx=0;entryDy=0;" edge="1" parent="1" source="mnCGz3y9tnZlSnGq0WkS-39" target="mnCGz3y9tnZlSnGq0WkS-33">
          <mxGeometry relative="1" as="geometry" />
        </mxCell>
        <mxCell id="mnCGz3y9tnZlSnGq0WkS-39" value="UserValidator" style="swimlane;fontStyle=0;childLayout=stackLayout;horizontal=1;startSize=30;horizontalStack=0;resizeParent=1;resizeParentMax=0;resizeLast=0;collapsible=1;marginBottom=0;whiteSpace=wrap;html=1;" vertex="1" parent="1">
          <mxGeometry x="900" y="1020" width="140" height="60" as="geometry" />
        </mxCell>
        <mxCell id="mnCGz3y9tnZlSnGq0WkS-40" value="validate" style="text;strokeColor=none;fillColor=none;align=left;verticalAlign=middle;spacingLeft=4;spacingRight=4;overflow=hidden;points=[[0,0.5],[1,0.5]];portConstraint=eastwest;rotatable=0;whiteSpace=wrap;html=1;" vertex="1" parent="mnCGz3y9tnZlSnGq0WkS-39">
          <mxGeometry y="30" width="140" height="30" as="geometry" />
        </mxCell>
        <mxCell id="mnCGz3y9tnZlSnGq0WkS-50" style="edgeStyle=orthogonalEdgeStyle;rounded=0;orthogonalLoop=1;jettySize=auto;html=1;entryX=0.5;entryY=0;entryDx=0;entryDy=0;" edge="1" parent="1" source="mnCGz3y9tnZlSnGq0WkS-46" target="mnCGz3y9tnZlSnGq0WkS-39">
          <mxGeometry relative="1" as="geometry" />
        </mxCell>
        <mxCell id="mnCGz3y9tnZlSnGq0WkS-46" value="UserRule" style="swimlane;fontStyle=0;childLayout=stackLayout;horizontal=1;startSize=30;horizontalStack=0;resizeParent=1;resizeParentMax=0;resizeLast=0;collapsible=1;marginBottom=0;whiteSpace=wrap;html=1;" vertex="1" parent="1">
          <mxGeometry x="850" y="770" width="140" height="60" as="geometry" />
        </mxCell>
        <mxCell id="mnCGz3y9tnZlSnGq0WkS-47" value="apply" style="text;strokeColor=none;fillColor=none;align=left;verticalAlign=middle;spacingLeft=4;spacingRight=4;overflow=hidden;points=[[0,0.5],[1,0.5]];portConstraint=eastwest;rotatable=0;whiteSpace=wrap;html=1;" vertex="1" parent="mnCGz3y9tnZlSnGq0WkS-46">
          <mxGeometry y="30" width="140" height="30" as="geometry" />
        </mxCell>
        <mxCell id="mnCGz3y9tnZlSnGq0WkS-109" value="" style="edgeStyle=orthogonalEdgeStyle;rounded=0;orthogonalLoop=1;jettySize=auto;html=1;" edge="1" parent="1" source="mnCGz3y9tnZlSnGq0WkS-51" target="mnCGz3y9tnZlSnGq0WkS-107">
          <mxGeometry relative="1" as="geometry" />
        </mxCell>
        <mxCell id="mnCGz3y9tnZlSnGq0WkS-113" style="edgeStyle=orthogonalEdgeStyle;rounded=0;orthogonalLoop=1;jettySize=auto;html=1;entryX=0;entryY=0.25;entryDx=0;entryDy=0;" edge="1" parent="1" source="mnCGz3y9tnZlSnGq0WkS-51" target="mnCGz3y9tnZlSnGq0WkS-111">
          <mxGeometry relative="1" as="geometry" />
        </mxCell>
        <mxCell id="mnCGz3y9tnZlSnGq0WkS-51" value="UserService" style="swimlane;fontStyle=0;childLayout=stackLayout;horizontal=1;startSize=30;horizontalStack=0;resizeParent=1;resizeParentMax=0;resizeLast=0;collapsible=1;marginBottom=0;whiteSpace=wrap;html=1;" vertex="1" parent="1">
          <mxGeometry x="501" y="1360" width="140" height="60" as="geometry" />
        </mxCell>
        <mxCell id="mnCGz3y9tnZlSnGq0WkS-52" value="registerUser&lt;span class=&quot;hljs-params&quot;&gt;&lt;/span&gt;" style="text;strokeColor=none;fillColor=none;align=left;verticalAlign=middle;spacingLeft=4;spacingRight=4;overflow=hidden;points=[[0,0.5],[1,0.5]];portConstraint=eastwest;rotatable=0;whiteSpace=wrap;html=1;" vertex="1" parent="mnCGz3y9tnZlSnGq0WkS-51">
          <mxGeometry y="30" width="140" height="30" as="geometry" />
        </mxCell>
        <mxCell id="mnCGz3y9tnZlSnGq0WkS-56" style="edgeStyle=orthogonalEdgeStyle;rounded=0;orthogonalLoop=1;jettySize=auto;html=1;entryX=0.336;entryY=0.025;entryDx=0;entryDy=0;entryPerimeter=0;" edge="1" parent="1" source="mnCGz3y9tnZlSnGq0WkS-24" target="mnCGz3y9tnZlSnGq0WkS-51">
          <mxGeometry relative="1" as="geometry" />
        </mxCell>
        <mxCell id="mnCGz3y9tnZlSnGq0WkS-57" style="edgeStyle=orthogonalEdgeStyle;rounded=0;orthogonalLoop=1;jettySize=auto;html=1;entryX=0.15;entryY=0.025;entryDx=0;entryDy=0;entryPerimeter=0;" edge="1" parent="1" source="mnCGz3y9tnZlSnGq0WkS-29" target="mnCGz3y9tnZlSnGq0WkS-51">
          <mxGeometry relative="1" as="geometry" />
        </mxCell>
        <mxCell id="mnCGz3y9tnZlSnGq0WkS-58" value="DB" style="shape=parallelogram;perimeter=parallelogramPerimeter;whiteSpace=wrap;html=1;fixedSize=1;" vertex="1" parent="1">
          <mxGeometry x="690" y="710" width="120" height="60" as="geometry" />
        </mxCell>
        <mxCell id="mnCGz3y9tnZlSnGq0WkS-59" style="edgeStyle=orthogonalEdgeStyle;rounded=0;orthogonalLoop=1;jettySize=auto;html=1;entryX=1;entryY=0.167;entryDx=0;entryDy=0;entryPerimeter=0;" edge="1" parent="1" source="mnCGz3y9tnZlSnGq0WkS-58" target="mnCGz3y9tnZlSnGq0WkS-20">
          <mxGeometry relative="1" as="geometry" />
        </mxCell>
        <mxCell id="mnCGz3y9tnZlSnGq0WkS-60" value="UserController" style="swimlane;fontStyle=0;childLayout=stackLayout;horizontal=1;startSize=30;horizontalStack=0;resizeParent=1;resizeParentMax=0;resizeLast=0;collapsible=1;marginBottom=0;whiteSpace=wrap;html=1;" vertex="1" parent="1">
          <mxGeometry x="130" y="1440" width="140" height="90" as="geometry" />
        </mxCell>
        <mxCell id="mnCGz3y9tnZlSnGq0WkS-61" value="action&amp;nbsp;1" style="text;strokeColor=none;fillColor=none;align=left;verticalAlign=middle;spacingLeft=4;spacingRight=4;overflow=hidden;points=[[0,0.5],[1,0.5]];portConstraint=eastwest;rotatable=0;whiteSpace=wrap;html=1;" vertex="1" parent="mnCGz3y9tnZlSnGq0WkS-60">
          <mxGeometry y="30" width="140" height="30" as="geometry" />
        </mxCell>
        <mxCell id="mnCGz3y9tnZlSnGq0WkS-62" value="action 2" style="text;strokeColor=none;fillColor=none;align=left;verticalAlign=middle;spacingLeft=4;spacingRight=4;overflow=hidden;points=[[0,0.5],[1,0.5]];portConstraint=eastwest;rotatable=0;whiteSpace=wrap;html=1;" vertex="1" parent="mnCGz3y9tnZlSnGq0WkS-60">
          <mxGeometry y="60" width="140" height="30" as="geometry" />
        </mxCell>
        <mxCell id="mnCGz3y9tnZlSnGq0WkS-64" value="UserRepository" style="swimlane;fontStyle=0;childLayout=stackLayout;horizontal=1;startSize=30;horizontalStack=0;resizeParent=1;resizeParentMax=0;resizeLast=0;collapsible=1;marginBottom=0;whiteSpace=wrap;html=1;" vertex="1" parent="1">
          <mxGeometry x="720" y="890" width="140" height="90" as="geometry" />
        </mxCell>
        <mxCell id="mnCGz3y9tnZlSnGq0WkS-65" value="getAll" style="text;strokeColor=none;fillColor=none;align=left;verticalAlign=middle;spacingLeft=4;spacingRight=4;overflow=hidden;points=[[0,0.5],[1,0.5]];portConstraint=eastwest;rotatable=0;whiteSpace=wrap;html=1;" vertex="1" parent="mnCGz3y9tnZlSnGq0WkS-64">
          <mxGeometry y="30" width="140" height="30" as="geometry" />
        </mxCell>
        <mxCell id="mnCGz3y9tnZlSnGq0WkS-67" value="getOne" style="text;strokeColor=none;fillColor=none;align=left;verticalAlign=middle;spacingLeft=4;spacingRight=4;overflow=hidden;points=[[0,0.5],[1,0.5]];portConstraint=eastwest;rotatable=0;whiteSpace=wrap;html=1;" vertex="1" parent="mnCGz3y9tnZlSnGq0WkS-64">
          <mxGeometry y="60" width="140" height="30" as="geometry" />
        </mxCell>
        <mxCell id="mnCGz3y9tnZlSnGq0WkS-68" style="edgeStyle=orthogonalEdgeStyle;rounded=0;orthogonalLoop=1;jettySize=auto;html=1;entryX=0.007;entryY=0.167;entryDx=0;entryDy=0;entryPerimeter=0;" edge="1" parent="1" source="mnCGz3y9tnZlSnGq0WkS-64" target="mnCGz3y9tnZlSnGq0WkS-39">
          <mxGeometry relative="1" as="geometry" />
        </mxCell>
        <mxCell id="mnCGz3y9tnZlSnGq0WkS-69" style="edgeStyle=orthogonalEdgeStyle;rounded=0;orthogonalLoop=1;jettySize=auto;html=1;entryX=-0.021;entryY=0.108;entryDx=0;entryDy=0;entryPerimeter=0;" edge="1" parent="1" source="mnCGz3y9tnZlSnGq0WkS-20" target="mnCGz3y9tnZlSnGq0WkS-64">
          <mxGeometry relative="1" as="geometry" />
        </mxCell>
        <mxCell id="mnCGz3y9tnZlSnGq0WkS-70" value="所有" style="edgeStyle=orthogonalEdgeStyle;rounded=0;orthogonalLoop=1;jettySize=auto;html=1;entryX=1.021;entryY=0.133;entryDx=0;entryDy=0;entryPerimeter=0;" edge="1" parent="1" source="mnCGz3y9tnZlSnGq0WkS-51" target="mnCGz3y9tnZlSnGq0WkS-60">
          <mxGeometry relative="1" as="geometry" />
        </mxCell>
        <mxCell id="mnCGz3y9tnZlSnGq0WkS-71" value="UserView" style="swimlane;fontStyle=0;childLayout=stackLayout;horizontal=1;startSize=30;horizontalStack=0;resizeParent=1;resizeParentMax=0;resizeLast=0;collapsible=1;marginBottom=0;whiteSpace=wrap;html=1;" vertex="1" parent="1">
          <mxGeometry x="-220" y="1280" width="140" height="120" as="geometry" />
        </mxCell>
        <mxCell id="mnCGz3y9tnZlSnGq0WkS-72" value="Item 1" style="text;strokeColor=none;fillColor=none;align=left;verticalAlign=middle;spacingLeft=4;spacingRight=4;overflow=hidden;points=[[0,0.5],[1,0.5]];portConstraint=eastwest;rotatable=0;whiteSpace=wrap;html=1;" vertex="1" parent="mnCGz3y9tnZlSnGq0WkS-71">
          <mxGeometry y="30" width="140" height="30" as="geometry" />
        </mxCell>
        <mxCell id="mnCGz3y9tnZlSnGq0WkS-73" value="Item 2" style="text;strokeColor=none;fillColor=none;align=left;verticalAlign=middle;spacingLeft=4;spacingRight=4;overflow=hidden;points=[[0,0.5],[1,0.5]];portConstraint=eastwest;rotatable=0;whiteSpace=wrap;html=1;" vertex="1" parent="mnCGz3y9tnZlSnGq0WkS-71">
          <mxGeometry y="60" width="140" height="30" as="geometry" />
        </mxCell>
        <mxCell id="mnCGz3y9tnZlSnGq0WkS-74" value="Item 3" style="text;strokeColor=none;fillColor=none;align=left;verticalAlign=middle;spacingLeft=4;spacingRight=4;overflow=hidden;points=[[0,0.5],[1,0.5]];portConstraint=eastwest;rotatable=0;whiteSpace=wrap;html=1;" vertex="1" parent="mnCGz3y9tnZlSnGq0WkS-71">
          <mxGeometry y="90" width="140" height="30" as="geometry" />
        </mxCell>
        <mxCell id="mnCGz3y9tnZlSnGq0WkS-76" value="DTOのやりとり" style="endArrow=classic;startArrow=classic;html=1;rounded=0;" edge="1" parent="1" source="mnCGz3y9tnZlSnGq0WkS-60" target="mnCGz3y9tnZlSnGq0WkS-71">
          <mxGeometry width="50" height="50" relative="1" as="geometry">
            <mxPoint x="270" y="1360" as="sourcePoint" />
            <mxPoint x="320" y="1310" as="targetPoint" />
          </mxGeometry>
        </mxCell>
        <mxCell id="mnCGz3y9tnZlSnGq0WkS-79" value="UserConverter" style="swimlane;fontStyle=0;childLayout=stackLayout;horizontal=1;startSize=30;horizontalStack=0;resizeParent=1;resizeParentMax=0;resizeLast=0;collapsible=1;marginBottom=0;whiteSpace=wrap;html=1;" vertex="1" parent="1">
          <mxGeometry x="-300" y="930" width="140" height="120" as="geometry" />
        </mxCell>
        <mxCell id="mnCGz3y9tnZlSnGq0WkS-80" value="Item 1" style="text;strokeColor=none;fillColor=none;align=left;verticalAlign=middle;spacingLeft=4;spacingRight=4;overflow=hidden;points=[[0,0.5],[1,0.5]];portConstraint=eastwest;rotatable=0;whiteSpace=wrap;html=1;" vertex="1" parent="mnCGz3y9tnZlSnGq0WkS-79">
          <mxGeometry y="30" width="140" height="30" as="geometry" />
        </mxCell>
        <mxCell id="mnCGz3y9tnZlSnGq0WkS-81" value="Item 2" style="text;strokeColor=none;fillColor=none;align=left;verticalAlign=middle;spacingLeft=4;spacingRight=4;overflow=hidden;points=[[0,0.5],[1,0.5]];portConstraint=eastwest;rotatable=0;whiteSpace=wrap;html=1;" vertex="1" parent="mnCGz3y9tnZlSnGq0WkS-79">
          <mxGeometry y="60" width="140" height="30" as="geometry" />
        </mxCell>
        <mxCell id="mnCGz3y9tnZlSnGq0WkS-82" value="Item 3" style="text;strokeColor=none;fillColor=none;align=left;verticalAlign=middle;spacingLeft=4;spacingRight=4;overflow=hidden;points=[[0,0.5],[1,0.5]];portConstraint=eastwest;rotatable=0;whiteSpace=wrap;html=1;" vertex="1" parent="mnCGz3y9tnZlSnGq0WkS-79">
          <mxGeometry y="90" width="140" height="30" as="geometry" />
        </mxCell>
        <mxCell id="mnCGz3y9tnZlSnGq0WkS-83" style="edgeStyle=orthogonalEdgeStyle;rounded=0;orthogonalLoop=1;jettySize=auto;html=1;entryX=0.25;entryY=0;entryDx=0;entryDy=0;" edge="1" parent="1" source="mnCGz3y9tnZlSnGq0WkS-80" target="mnCGz3y9tnZlSnGq0WkS-1">
          <mxGeometry relative="1" as="geometry" />
        </mxCell>
        <mxCell id="mnCGz3y9tnZlSnGq0WkS-84" style="edgeStyle=orthogonalEdgeStyle;rounded=0;orthogonalLoop=1;jettySize=auto;html=1;entryX=0.314;entryY=0.013;entryDx=0;entryDy=0;entryPerimeter=0;" edge="1" parent="1" source="mnCGz3y9tnZlSnGq0WkS-79" target="mnCGz3y9tnZlSnGq0WkS-7">
          <mxGeometry relative="1" as="geometry" />
        </mxCell>
        <mxCell id="mnCGz3y9tnZlSnGq0WkS-91" value="UserResponseDto&amp;nbsp;" style="swimlane;fontStyle=0;childLayout=stackLayout;horizontal=1;startSize=30;horizontalStack=0;resizeParent=1;resizeParentMax=0;resizeLast=0;collapsible=1;marginBottom=0;whiteSpace=wrap;html=1;" vertex="1" parent="1">
          <mxGeometry x="230" y="750" width="140" height="150" as="geometry" />
        </mxCell>
        <mxCell id="mnCGz3y9tnZlSnGq0WkS-92" value="Item 1" style="text;strokeColor=none;fillColor=none;align=left;verticalAlign=middle;spacingLeft=4;spacingRight=4;overflow=hidden;points=[[0,0.5],[1,0.5]];portConstraint=eastwest;rotatable=0;whiteSpace=wrap;html=1;" vertex="1" parent="mnCGz3y9tnZlSnGq0WkS-91">
          <mxGeometry y="30" width="140" height="30" as="geometry" />
        </mxCell>
        <mxCell id="mnCGz3y9tnZlSnGq0WkS-93" value="Item 2" style="text;strokeColor=none;fillColor=none;align=left;verticalAlign=middle;spacingLeft=4;spacingRight=4;overflow=hidden;points=[[0,0.5],[1,0.5]];portConstraint=eastwest;rotatable=0;whiteSpace=wrap;html=1;" vertex="1" parent="mnCGz3y9tnZlSnGq0WkS-91">
          <mxGeometry y="60" width="140" height="30" as="geometry" />
        </mxCell>
        <mxCell id="mnCGz3y9tnZlSnGq0WkS-94" value="Item 2" style="text;strokeColor=none;fillColor=none;align=left;verticalAlign=middle;spacingLeft=4;spacingRight=4;overflow=hidden;points=[[0,0.5],[1,0.5]];portConstraint=eastwest;rotatable=0;whiteSpace=wrap;html=1;" vertex="1" parent="mnCGz3y9tnZlSnGq0WkS-91">
          <mxGeometry y="90" width="140" height="30" as="geometry" />
        </mxCell>
        <mxCell id="mnCGz3y9tnZlSnGq0WkS-95" value="Item 3" style="text;strokeColor=none;fillColor=none;align=left;verticalAlign=middle;spacingLeft=4;spacingRight=4;overflow=hidden;points=[[0,0.5],[1,0.5]];portConstraint=eastwest;rotatable=0;whiteSpace=wrap;html=1;" vertex="1" parent="mnCGz3y9tnZlSnGq0WkS-91">
          <mxGeometry y="120" width="140" height="30" as="geometry" />
        </mxCell>
        <mxCell id="mnCGz3y9tnZlSnGq0WkS-117" style="edgeStyle=orthogonalEdgeStyle;rounded=0;orthogonalLoop=1;jettySize=auto;html=1;entryX=0.75;entryY=0;entryDx=0;entryDy=0;" edge="1" parent="1" source="mnCGz3y9tnZlSnGq0WkS-97" target="mnCGz3y9tnZlSnGq0WkS-60">
          <mxGeometry relative="1" as="geometry" />
        </mxCell>
        <mxCell id="mnCGz3y9tnZlSnGq0WkS-97" value="UserUpdateDto&amp;nbsp;" style="swimlane;fontStyle=0;childLayout=stackLayout;horizontal=1;startSize=30;horizontalStack=0;resizeParent=1;resizeParentMax=0;resizeLast=0;collapsible=1;marginBottom=0;whiteSpace=wrap;html=1;" vertex="1" parent="1">
          <mxGeometry x="60" y="750" width="140" height="150" as="geometry" />
        </mxCell>
        <mxCell id="mnCGz3y9tnZlSnGq0WkS-98" value="Item 1" style="text;strokeColor=none;fillColor=none;align=left;verticalAlign=middle;spacingLeft=4;spacingRight=4;overflow=hidden;points=[[0,0.5],[1,0.5]];portConstraint=eastwest;rotatable=0;whiteSpace=wrap;html=1;" vertex="1" parent="mnCGz3y9tnZlSnGq0WkS-97">
          <mxGeometry y="30" width="140" height="30" as="geometry" />
        </mxCell>
        <mxCell id="mnCGz3y9tnZlSnGq0WkS-99" value="Item 2" style="text;strokeColor=none;fillColor=none;align=left;verticalAlign=middle;spacingLeft=4;spacingRight=4;overflow=hidden;points=[[0,0.5],[1,0.5]];portConstraint=eastwest;rotatable=0;whiteSpace=wrap;html=1;" vertex="1" parent="mnCGz3y9tnZlSnGq0WkS-97">
          <mxGeometry y="60" width="140" height="30" as="geometry" />
        </mxCell>
        <mxCell id="mnCGz3y9tnZlSnGq0WkS-100" value="Item 2" style="text;strokeColor=none;fillColor=none;align=left;verticalAlign=middle;spacingLeft=4;spacingRight=4;overflow=hidden;points=[[0,0.5],[1,0.5]];portConstraint=eastwest;rotatable=0;whiteSpace=wrap;html=1;" vertex="1" parent="mnCGz3y9tnZlSnGq0WkS-97">
          <mxGeometry y="90" width="140" height="30" as="geometry" />
        </mxCell>
        <mxCell id="mnCGz3y9tnZlSnGq0WkS-101" value="Item 3" style="text;strokeColor=none;fillColor=none;align=left;verticalAlign=middle;spacingLeft=4;spacingRight=4;overflow=hidden;points=[[0,0.5],[1,0.5]];portConstraint=eastwest;rotatable=0;whiteSpace=wrap;html=1;" vertex="1" parent="mnCGz3y9tnZlSnGq0WkS-97">
          <mxGeometry y="120" width="140" height="30" as="geometry" />
        </mxCell>
        <mxCell id="mnCGz3y9tnZlSnGq0WkS-107" value="UserService1" style="swimlane;fontStyle=0;childLayout=stackLayout;horizontal=1;startSize=30;horizontalStack=0;resizeParent=1;resizeParentMax=0;resizeLast=0;collapsible=1;marginBottom=0;whiteSpace=wrap;html=1;" vertex="1" parent="1">
          <mxGeometry x="721" y="1360" width="140" height="60" as="geometry" />
        </mxCell>
        <mxCell id="mnCGz3y9tnZlSnGq0WkS-108" value="anyService&lt;span class=&quot;hljs-params&quot;&gt;&lt;/span&gt;" style="text;strokeColor=none;fillColor=none;align=left;verticalAlign=middle;spacingLeft=4;spacingRight=4;overflow=hidden;points=[[0,0.5],[1,0.5]];portConstraint=eastwest;rotatable=0;whiteSpace=wrap;html=1;" vertex="1" parent="mnCGz3y9tnZlSnGq0WkS-107">
          <mxGeometry y="30" width="140" height="30" as="geometry" />
        </mxCell>
        <mxCell id="mnCGz3y9tnZlSnGq0WkS-111" value="UserService2" style="swimlane;fontStyle=0;childLayout=stackLayout;horizontal=1;startSize=30;horizontalStack=0;resizeParent=1;resizeParentMax=0;resizeLast=0;collapsible=1;marginBottom=0;whiteSpace=wrap;html=1;" vertex="1" parent="1">
          <mxGeometry x="730" y="1500" width="140" height="60" as="geometry" />
        </mxCell>
        <mxCell id="mnCGz3y9tnZlSnGq0WkS-112" value="anyService&lt;span class=&quot;hljs-params&quot;&gt;&lt;/span&gt;" style="text;strokeColor=none;fillColor=none;align=left;verticalAlign=middle;spacingLeft=4;spacingRight=4;overflow=hidden;points=[[0,0.5],[1,0.5]];portConstraint=eastwest;rotatable=0;whiteSpace=wrap;html=1;" vertex="1" parent="mnCGz3y9tnZlSnGq0WkS-111">
          <mxGeometry y="30" width="140" height="30" as="geometry" />
        </mxCell>
        <mxCell id="mnCGz3y9tnZlSnGq0WkS-114" style="edgeStyle=orthogonalEdgeStyle;rounded=0;orthogonalLoop=1;jettySize=auto;html=1;entryX=0.871;entryY=0.033;entryDx=0;entryDy=0;entryPerimeter=0;" edge="1" parent="1" source="mnCGz3y9tnZlSnGq0WkS-91" target="mnCGz3y9tnZlSnGq0WkS-60">
          <mxGeometry relative="1" as="geometry" />
        </mxCell>
      </root>
    </mxGraphModel>
  </diagram>
</mxfile>
